<svg width="100%" height="100%" viewBox="0 0 2489 665" fill="none" xmlns="http://www.w3.org/2000/svg">
<path d="M742.383 331.072H780.531C822.787 331.072 843.915 312.649 843.915 275.803C843.915 238.957 822.787 220.534 780.531 220.534H742.383V331.072ZM742.383 570.964H627.352V127.634H810.462C860.152 127.634 898.105 140.57 924.319 166.44C950.925 192.311 964.228 228.765 964.228 275.803C964.228 322.841 950.925 359.295 924.319 385.165C898.105 411.036 860.152 423.972 810.462 423.972H742.383V570.964Z" fill="black"></path>
<path d="M1109.62 269.335V570.964H1003.39V269.335H1109.62ZM996.351 153.505C996.351 145.273 997.916 137.63 1001.05 130.574C1004.18 123.127 1008.48 116.659 1013.96 111.171C1019.44 105.683 1025.7 101.372 1032.74 98.2358C1040.17 95.0999 1048 93.532 1056.21 93.532C1064.43 93.532 1072.06 95.0999 1079.1 98.2358C1086.54 101.372 1092.99 105.683 1098.47 111.171C1103.95 116.659 1108.25 123.127 1111.38 130.574C1114.51 137.63 1116.08 145.273 1116.08 153.505C1116.08 161.737 1114.51 169.576 1111.38 177.024C1108.25 184.079 1103.95 190.351 1098.47 195.839C1092.99 201.327 1086.54 205.638 1079.1 208.774C1072.06 211.91 1064.43 213.478 1056.21 213.478C1048 213.478 1040.17 211.91 1032.74 208.774C1025.7 205.638 1019.44 201.327 1013.96 195.839C1008.48 190.351 1004.18 184.079 1001.05 177.024C997.916 169.576 996.351 161.737 996.351 153.505Z" fill="black"></path>
<path d="M1170.48 269.335H1276.7V307.553C1291.18 289.914 1305.85 278.155 1320.72 272.275C1335.59 266.003 1353 262.868 1372.95 262.868C1394.08 262.868 1412.08 266.395 1426.95 273.451C1442.21 280.115 1455.12 289.718 1465.68 302.262C1474.29 312.453 1480.16 323.82 1483.29 336.364C1486.42 348.907 1487.98 363.215 1487.98 379.286V570.964H1381.76V418.68C1381.76 403.785 1380.58 391.829 1378.24 382.814C1376.28 373.406 1372.56 365.958 1367.08 360.471C1362.39 355.767 1357.11 352.435 1351.24 350.475C1345.37 348.515 1339.11 347.535 1332.46 347.535C1314.46 347.535 1300.57 353.023 1290.79 363.998C1281.4 374.582 1276.7 389.869 1276.7 409.86V570.964H1170.48V269.335Z" fill="black"></path>
<path d="M1635.33 419.268C1635.33 429.067 1637.09 438.279 1640.61 446.902C1644.13 455.134 1648.83 462.386 1654.7 468.657C1660.96 474.929 1668.2 479.829 1676.41 483.357C1685.02 486.884 1694.22 488.648 1704 488.648C1713.39 488.648 1722.19 486.884 1730.41 483.357C1739.02 479.829 1746.25 474.929 1752.12 468.657C1758.38 462.386 1763.27 455.134 1766.8 446.902C1770.71 438.671 1772.66 429.851 1772.66 420.444C1772.66 411.036 1770.71 402.217 1766.8 393.985C1763.27 385.361 1758.38 377.914 1752.12 371.642C1746.25 365.37 1739.02 360.471 1730.41 356.943C1722.19 353.415 1713.39 351.651 1704 351.651C1694.22 351.651 1685.02 353.415 1676.41 356.943C1668.2 360.471 1660.96 365.37 1654.7 371.642C1648.83 377.914 1644.13 385.165 1640.61 393.397C1637.09 401.237 1635.33 409.86 1635.33 419.268ZM1769.14 269.335H1875.96V570.964H1769.14V537.45C1746.45 566.064 1715.74 580.372 1677 580.372C1655.09 580.372 1634.94 576.452 1616.55 568.612C1598.16 560.381 1582.12 549.013 1568.43 534.51C1554.73 520.007 1543.97 502.956 1536.15 483.357C1528.71 463.757 1525 442.395 1525 419.268C1525 397.709 1528.71 377.326 1536.15 358.119C1543.58 338.52 1553.95 321.469 1567.25 306.965C1580.55 292.462 1596.4 281.095 1614.79 272.863C1633.18 264.239 1653.52 259.928 1675.83 259.928C1713.39 259.928 1744.49 273.059 1769.14 299.322V269.335Z" fill="black"></path>
<path d="M2055.06 358.119V570.964H1948.83V358.119H1913.62V269.335H1948.83V178.788H2055.06V269.335H2115.51V358.119H2055.06Z" fill="black"></path>
<path d="M2248.04 419.268C2248.04 429.067 2249.8 438.279 2253.32 446.902C2256.84 455.134 2261.54 462.386 2267.41 468.657C2273.67 474.929 2280.9 479.829 2289.12 483.357C2297.73 486.884 2306.92 488.648 2316.7 488.648C2326.1 488.648 2334.9 486.884 2343.12 483.357C2351.72 479.829 2358.96 474.929 2364.83 468.657C2371.09 462.386 2375.98 455.134 2379.5 446.902C2383.42 438.671 2385.37 429.851 2385.37 420.444C2385.37 411.036 2383.42 402.217 2379.5 393.985C2375.98 385.361 2371.09 377.914 2364.83 371.642C2358.96 365.37 2351.72 360.471 2343.12 356.943C2334.9 353.415 2326.1 351.651 2316.7 351.651C2306.92 351.651 2297.73 353.415 2289.12 356.943C2280.9 360.471 2273.67 365.37 2267.41 371.642C2261.54 377.914 2256.84 385.165 2253.32 393.397C2249.8 401.237 2248.04 409.86 2248.04 419.268ZM2381.85 269.335H2488.66V570.964H2381.85V537.45C2359.16 566.064 2328.44 580.372 2289.71 580.372C2267.8 580.372 2247.65 576.452 2229.26 568.612C2210.87 560.381 2194.83 549.013 2181.13 534.51C2167.44 520.007 2156.68 502.956 2148.85 483.357C2141.42 463.757 2137.7 442.395 2137.7 419.268C2137.7 397.709 2141.42 377.326 2148.85 358.119C2156.29 338.52 2166.66 321.469 2179.96 306.965C2193.26 292.462 2209.11 281.095 2227.5 272.863C2245.89 264.239 2266.23 259.928 2288.53 259.928C2326.1 259.928 2357.2 273.059 2381.85 299.322V269.335Z" fill="black"></path>
<g clip-path="url(#clip0_308_1723)">
<path d="M269.551 596.011H358.083V619.874C358.083 644.28 338.248 664.094 313.817 664.094C289.386 664.094 269.551 644.28 269.551 619.874V596.011Z" fill="#603F99"></path>
<path d="M368.606 548.94L380.743 597.481L244.661 597.142L262.096 548.669L244.661 548.624L262.119 500.106H368.539L380.743 548.963L368.606 548.94Z" fill="#CE3F8F"></path>
<path d="M70.667 596.011H159.199V619.874C159.199 644.28 139.365 664.094 114.933 664.094C90.5019 664.094 70.667 644.28 70.667 619.874V596.011Z" fill="#603F99"></path>
<path d="M169.69 548.94L181.826 597.481L45.7441 597.142L63.1789 548.669L45.7441 548.624L63.2016 500.106H169.622L181.826 548.963L169.69 548.94Z" fill="#CE3F8F"></path>
<path d="M361.602 455.584L383.271 502.948L51.3311 500.008L79.7248 453.073L51.3311 452.824L81.9664 402.18L60.1617 401.931L86.8799 348.098L173.148 359.86H355.873L374.44 405.551L360.244 405.392L383.271 455.765L361.602 455.584Z" fill="#FFDD00"></path>
<path d="M353.774 312.593L370.031 360.545H175.26L194.121 312.593H175.26L194.483 263.736H353.457L370.031 312.593H353.774Z" fill="#1DB9D2"></path>
<path d="M375.873 263.963H172.09L198.582 209.451L176.618 208.998L216.469 129.832L376.099 165.118L375.873 263.963Z" fill="#FFDD00"></path>
<path d="M86.8785 348.105C86.8785 333.652 84.2293 314.629 77.4366 303.772C68.3796 289.296 52.0769 279.344 20.3773 279.117L19.9245 297.213C31.2457 296.76 42.1142 297.891 51.3976 303.772C59.3225 308.748 65.8889 316.891 70.8702 330.463C43.2463 320.963 27.3965 323.903 16.3017 331.141C10.4146 334.986 5.88607 339.736 1.58398 344.939L14.0374 356.474C14.7167 355.344 15.6224 354.439 16.3017 353.534C29.8872 337.474 45.5106 337.927 62.0396 346.748C26.038 363.939 20.3773 394.248 22.1887 416.189C23.7737 416.415 39.8499 416.189 39.8499 416.189C38.2649 394.927 50.9221 365.635 82.6217 357.04L86.8785 348.105Z" fill="#603F99"></path>
<path d="M325.596 154.034C378.806 80.2959 405.071 43.8792 384.013 26.0102C370.201 14.2483 349.868 24.178 319.527 46.7971C318.395 70.9994 314.32 104.159 306.621 149.849L325.573 154.034H325.596Z" fill="#008599"></path>
<path d="M303.41 2.02983C274.654 -4.98207 258.125 40.7084 216.463 129.827L309.094 150.388C316.792 104.698 321.026 71.3572 320.845 45.4584C321.977 19.4465 317.449 5.42269 303.41 2.02983Z" fill="#1DB9D2"></path>
<path d="M331.499 454.393L328.805 454.212L328.782 454.189L331.499 454.393Z" fill="#F99D2A"></path>
<path d="M313.145 220.262C325.275 220.262 335.108 210.439 335.108 198.322C335.108 186.204 325.275 176.381 313.145 176.381C301.015 176.381 291.182 186.204 291.182 198.322C291.182 210.439 301.015 220.262 313.145 220.262Z" fill="white"></path>
<path d="M331.499 454.393L328.805 454.212L328.782 454.189L331.499 454.393Z" fill="#FFE600"></path>
<path d="M375.867 263.96L376.094 165.115C376.094 165.115 434.33 178.256 446.897 210.782C447.803 213.135 448.188 215.645 448.188 218.156C450.542 262.376 375.867 263.96 375.867 263.96Z" fill="#CE3F8F"></path>
<path d="M375.865 260.188V263.966H363.797L337.645 252.679C335.629 251.864 332.98 248.924 334.067 246.82C334.724 245.508 337.328 243.948 341.562 245.599L375.865 260.188Z" fill="#000006"></path>
<path d="M77.5617 409.477L96.6494 427.414L128.349 397.557L159.143 428.093L190.616 398.236L222.089 428.093L252.883 397.557L284.356 427.414L316.056 397.331L321.92 403.189L342.117 422.235L360.254 405.406L365.96 417.869L342.344 441.461L342.185 441.302L315.603 414.974L284.13 446.414L252.657 414.974L221.183 446.414L190.39 415.652L158.916 445.51L128.349 415.2L96.8758 446.641L70.7236 420.719" fill="#000006"></path>
<path d="M313.828 209.274C319.986 208.822 324.56 203.574 324.107 197.625C323.654 191.473 318.401 186.904 312.446 187.356C306.288 187.809 301.714 193.056 302.167 199.005C302.393 204.931 307.646 209.726 313.828 209.274Z" fill="#000006"></path>
</g>
<defs>
<clipPath id="clip0_308_1723">
<rect width="448.323" height="665" fill="white"></rect>
</clipPath>
</defs>
</svg>